<?xml version="1.0" encoding="UTF-8"?>
<svg xmlns="http://www.w3.org/2000/svg" xmlns:xlink="http://www.w3.org/1999/xlink" width="68pt" height="42pt" viewBox="0 0 68 42" version="1.1">
<g id="surface1">
<path style=" stroke:none;fill-rule:nonzero;fill:rgb(85.098039%,13.333333%,16.470588%);fill-opacity:1;" d="M 61.199219 21 C 61.199219 29.839844 53.914062 37.007812 44.925781 37.007812 C 35.941406 37.007812 28.652344 29.839844 28.652344 21 C 28.652344 12.160156 35.941406 4.992188 44.925781 4.992188 C 53.914062 4.992188 61.199219 12.160156 61.199219 21 "/>
<path style=" stroke:none;fill-rule:nonzero;fill:rgb(0%,59.215686%,81.568627%);fill-opacity:1;" d="M 32.355469 31.164062 C 31.90625 30.628906 31.492188 30.0625 31.117188 29.46875 L 36.882812 29.46875 C 37.230469 28.925781 37.542969 28.359375 37.820312 27.773438 L 30.179688 27.773438 C 29.917969 27.226562 29.6875 26.660156 29.492188 26.078125 L 38.507812 26.078125 C 39.050781 24.484375 39.347656 22.777344 39.347656 21 C 39.347656 19.835938 39.21875 18.703125 38.980469 17.609375 L 29.019531 17.609375 C 29.144531 17.03125 29.304688 16.46875 29.492188 15.914062 L 38.507812 15.914062 C 38.308594 15.335938 38.082031 14.769531 37.820312 14.222656 L 30.179688 14.222656 C 30.460938 13.636719 30.773438 13.070312 31.117188 12.527344 L 36.882812 12.527344 C 36.507812 11.933594 36.089844 11.371094 35.640625 10.832031 L 32.359375 10.832031 C 32.863281 10.230469 33.414062 9.664062 34 9.136719 C 31.113281 6.5625 27.277344 4.992188 23.074219 4.992188 C 14.085938 4.992188 6.800781 12.160156 6.800781 21 C 6.800781 29.839844 14.085938 37.007812 23.074219 37.007812 C 27.28125 37.007812 31.113281 35.4375 34 32.863281 C 34.589844 32.335938 35.140625 31.769531 35.644531 31.164062 L 32.355469 31.164062 "/>
<path style=" stroke:none;fill-rule:nonzero;fill:rgb(0%,0%,0%);fill-opacity:1;" d="M 59.03125 29.921875 C 59.03125 29.636719 59.265625 29.402344 59.558594 29.402344 C 59.847656 29.402344 60.082031 29.636719 60.082031 29.921875 C 60.082031 30.207031 59.847656 30.4375 59.558594 30.4375 C 59.265625 30.4375 59.03125 30.207031 59.03125 29.921875 Z M 59.558594 30.3125 C 59.777344 30.3125 59.957031 30.140625 59.957031 29.921875 C 59.957031 29.703125 59.777344 29.527344 59.558594 29.527344 C 59.335938 29.527344 59.15625 29.703125 59.15625 29.921875 C 59.15625 30.140625 59.335938 30.3125 59.558594 30.3125 Z M 59.484375 30.148438 L 59.378906 30.148438 L 59.378906 29.695312 L 59.574219 29.695312 C 59.613281 29.695312 59.65625 29.695312 59.691406 29.71875 C 59.726562 29.742188 59.75 29.785156 59.75 29.832031 C 59.75 29.882812 59.71875 29.929688 59.667969 29.949219 L 59.753906 30.148438 L 59.636719 30.148438 L 59.566406 29.96875 L 59.484375 29.96875 Z M 59.484375 29.890625 L 59.542969 29.890625 C 59.566406 29.890625 59.589844 29.894531 59.609375 29.882812 C 59.628906 29.871094 59.636719 29.851562 59.636719 29.828125 C 59.636719 29.8125 59.625 29.792969 59.613281 29.785156 C 59.59375 29.773438 59.5625 29.773438 59.542969 29.773438 L 59.484375 29.773438 Z M 59.484375 29.890625 "/>
<path style=" stroke:none;fill-rule:nonzero;fill:rgb(0%,0%,0%);fill-opacity:1;" d="M 33.769531 25.324219 C 33.074219 25.507812 32.402344 25.59375 31.691406 25.59375 C 29.421875 25.589844 28.238281 24.574219 28.238281 22.632812 C 28.238281 20.363281 29.742188 18.691406 31.785156 18.691406 C 33.453125 18.691406 34.519531 19.628906 34.519531 21.097656 C 34.519531 21.582031 34.449219 22.054688 34.273438 22.726562 L 30.238281 22.726562 C 30.09375 23.675781 30.800781 24.09375 32 24.09375 C 32.71875 24.09375 33.367188 23.964844 34.085938 23.679688 Z M 32.683594 21.386719 C 32.683594 21.246094 32.910156 20.226562 31.742188 20.203125 C 31.097656 20.203125 30.632812 20.625 30.445312 21.386719 Z M 32.683594 21.386719 "/>
<path style=" stroke:none;fill-rule:nonzero;fill:rgb(0%,0%,0%);fill-opacity:1;" d="M 35.136719 20.945312 C 35.136719 21.78125 35.613281 22.359375 36.707031 22.792969 C 37.539062 23.128906 37.671875 23.226562 37.671875 23.527344 C 37.671875 23.941406 37.304688 24.132812 36.484375 24.128906 C 35.871094 24.121094 35.308594 24.050781 34.648438 23.867188 L 34.355469 25.398438 C 34.941406 25.53125 35.769531 25.578125 36.5 25.59375 C 38.675781 25.59375 39.683594 24.890625 39.683594 23.375 C 39.683594 22.464844 39.261719 21.929688 38.230469 21.53125 C 37.363281 21.191406 37.261719 21.117188 37.261719 20.808594 C 37.261719 20.449219 37.605469 20.265625 38.273438 20.265625 C 38.679688 20.265625 39.234375 20.300781 39.757812 20.363281 L 40.054688 18.824219 C 39.519531 18.753906 38.703125 18.695312 38.234375 18.695312 C 35.925781 18.695312 35.128906 19.714844 35.136719 20.945312 "/>
<path style=" stroke:none;fill-rule:nonzero;fill:rgb(0%,0%,0%);fill-opacity:1;" d="M 27.132812 25.484375 L 25.441406 25.484375 L 25.484375 24.785156 C 24.964844 25.335938 24.28125 25.59375 23.347656 25.59375 C 22.242188 25.59375 21.488281 24.851562 21.488281 23.78125 C 21.488281 22.160156 22.800781 21.226562 25.0625 21.226562 C 25.292969 21.226562 25.589844 21.242188 25.890625 21.273438 C 25.957031 21.058594 25.972656 20.964844 25.972656 20.847656 C 25.972656 20.402344 25.617188 20.238281 24.664062 20.238281 C 23.726562 20.242188 23.09375 20.378906 22.507812 20.535156 L 22.796875 19.042969 C 23.8125 18.792969 24.476562 18.695312 25.230469 18.695312 C 26.980469 18.695312 27.902344 19.367188 27.902344 20.636719 C 27.917969 20.976562 27.796875 21.65625 27.738281 21.953125 C 27.671875 22.382812 27.183594 24.890625 27.132812 25.484375 Z M 25.648438 22.523438 C 25.433594 22.503906 25.339844 22.496094 25.195312 22.496094 C 24.039062 22.496094 23.457031 22.835938 23.457031 23.5 C 23.457031 23.917969 23.742188 24.183594 24.1875 24.183594 C 25.015625 24.183594 25.613281 23.5 25.648438 22.523438 Z M 25.648438 22.523438 "/>
<path style=" stroke:none;fill-rule:nonzero;fill:rgb(0%,0%,0%);fill-opacity:1;" d="M 43.25 25.378906 C 42.691406 25.527344 42.261719 25.59375 41.792969 25.59375 C 40.753906 25.59375 40.191406 25.074219 40.191406 24.144531 C 40.15625 23.890625 40.410156 22.710938 40.46875 22.382812 C 40.523438 22.054688 41.421875 17.257812 41.421875 17.257812 L 43.4375 17.257812 L 43.132812 18.84375 L 44.164062 18.84375 L 43.882812 20.464844 L 42.847656 20.464844 C 42.847656 20.464844 42.277344 23.277344 42.277344 23.492188 C 42.277344 23.832031 42.488281 23.980469 42.96875 23.980469 C 43.199219 23.980469 43.378906 23.960938 43.515625 23.917969 L 43.25 25.378906 "/>
<path style=" stroke:none;fill-rule:nonzero;fill:rgb(0%,0%,0%);fill-opacity:1;" d="M 52.246094 18.691406 C 50.769531 18.691406 49.617188 19.289062 48.949219 20.289062 L 49.527344 18.808594 C 48.457031 18.421875 47.765625 18.972656 47.140625 19.757812 C 47.140625 19.757812 47.039062 19.890625 46.933594 20.007812 L 46.933594 18.84375 L 45.042969 18.84375 C 44.785156 20.898438 44.332031 22.980469 43.980469 25.035156 L 43.894531 25.484375 L 45.929688 25.484375 C 46.121094 24.441406 46.277344 23.59375 46.4375 22.917969 C 46.871094 21.0625 47.597656 20.496094 48.6875 20.746094 C 48.4375 21.28125 48.296875 21.898438 48.296875 22.582031 C 48.296875 24.238281 49.214844 25.59375 51.484375 25.59375 C 53.777344 25.59375 55.4375 24.390625 55.4375 21.640625 C 55.4375 19.984375 54.332031 18.691406 52.246094 18.691406 Z M 51.65625 23.984375 C 50.9375 23.992188 50.5 23.402344 50.5 22.515625 C 50.5 21.460938 51.136719 20.273438 52.15625 20.273438 C 52.980469 20.273438 53.261719 20.917969 53.261719 21.601562 C 53.261719 23.097656 52.640625 23.984375 51.65625 23.984375 Z M 51.65625 23.984375 "/>
<path style=" stroke:none;fill-rule:nonzero;fill:rgb(0%,0%,0%);fill-opacity:1;" d="M 20.539062 25.484375 L 18.511719 25.484375 L 19.71875 19.246094 L 16.945312 25.484375 L 15.097656 25.484375 L 14.761719 19.28125 L 13.554688 25.484375 L 11.714844 25.484375 L 13.28125 17.371094 L 16.445312 17.371094 L 16.710938 21.894531 L 18.714844 17.371094 L 22.136719 17.371094 L 20.539062 25.484375 "/>
<path style=" stroke:none;fill-rule:nonzero;fill:rgb(100%,100%,100%);fill-opacity:1;" d="M 55.59375 24.46875 C 55.59375 24.183594 55.828125 23.949219 56.117188 23.949219 C 56.410156 23.949219 56.644531 24.183594 56.644531 24.46875 C 56.644531 24.753906 56.410156 24.984375 56.117188 24.984375 C 55.828125 24.984375 55.59375 24.753906 55.59375 24.46875 Z M 56.117188 24.859375 C 56.339844 24.859375 56.515625 24.683594 56.515625 24.46875 C 56.515625 24.25 56.339844 24.074219 56.117188 24.074219 C 55.898438 24.074219 55.71875 24.25 55.71875 24.46875 C 55.71875 24.683594 55.898438 24.859375 56.117188 24.859375 Z M 56.046875 24.695312 L 55.9375 24.695312 L 55.9375 24.242188 L 56.132812 24.242188 C 56.175781 24.242188 56.214844 24.242188 56.253906 24.261719 C 56.289062 24.289062 56.3125 24.332031 56.3125 24.375 C 56.3125 24.429688 56.28125 24.476562 56.230469 24.496094 L 56.316406 24.695312 L 56.195312 24.695312 L 56.125 24.515625 L 56.046875 24.515625 Z M 56.046875 24.4375 L 56.105469 24.4375 C 56.128906 24.4375 56.152344 24.4375 56.171875 24.429688 C 56.191406 24.417969 56.199219 24.398438 56.199219 24.375 C 56.199219 24.359375 56.1875 24.339844 56.171875 24.332031 C 56.152344 24.320312 56.125 24.320312 56.105469 24.320312 L 56.046875 24.320312 Z M 56.046875 24.4375 "/>
<path style=" stroke:none;fill-rule:nonzero;fill:rgb(100%,100%,100%);fill-opacity:1;" d="M 34.277344 24.824219 C 33.582031 25.007812 32.910156 25.09375 32.199219 25.09375 C 29.929688 25.089844 28.75 24.074219 28.75 22.132812 C 28.75 19.863281 30.253906 18.191406 32.292969 18.191406 C 33.964844 18.191406 35.03125 19.128906 35.03125 20.59375 C 35.03125 21.082031 34.957031 21.554688 34.78125 22.226562 L 30.746094 22.226562 C 30.605469 23.175781 31.308594 23.59375 32.507812 23.59375 C 33.226562 23.59375 33.875 23.464844 34.59375 23.179688 Z M 33.191406 20.886719 C 33.191406 20.746094 33.417969 19.726562 32.25 19.703125 C 31.605469 19.703125 31.144531 20.125 30.957031 20.886719 Z M 33.191406 20.886719 "/>
<path style=" stroke:none;fill-rule:nonzero;fill:rgb(100%,100%,100%);fill-opacity:1;" d="M 35.644531 20.441406 C 35.644531 21.28125 36.125 21.859375 37.214844 22.292969 C 38.050781 22.628906 38.179688 22.726562 38.179688 23.023438 C 38.179688 23.441406 37.8125 23.632812 36.992188 23.628906 C 36.378906 23.621094 35.816406 23.550781 35.15625 23.367188 L 34.863281 24.898438 C 35.453125 25.03125 36.277344 25.078125 37.007812 25.09375 C 39.1875 25.09375 40.191406 24.390625 40.191406 22.875 C 40.191406 21.964844 39.773438 21.429688 38.738281 21.027344 C 37.871094 20.691406 37.769531 20.617188 37.769531 20.308594 C 37.769531 19.945312 38.113281 19.765625 38.78125 19.765625 C 39.1875 19.765625 39.742188 19.800781 40.269531 19.863281 L 40.5625 18.324219 C 40.027344 18.253906 39.214844 18.195312 38.742188 18.195312 C 36.433594 18.195312 35.636719 19.214844 35.644531 20.441406 "/>
<path style=" stroke:none;fill-rule:nonzero;fill:rgb(100%,100%,100%);fill-opacity:1;" d="M 27.644531 24.984375 L 25.949219 24.984375 L 25.992188 24.285156 C 25.476562 24.835938 24.789062 25.09375 23.855469 25.09375 C 22.75 25.09375 21.996094 24.351562 21.996094 23.285156 C 21.996094 21.660156 23.308594 20.722656 25.570312 20.722656 C 25.800781 20.722656 26.097656 20.742188 26.402344 20.773438 C 26.464844 20.558594 26.480469 20.464844 26.480469 20.347656 C 26.480469 19.902344 26.125 19.738281 25.175781 19.738281 C 24.238281 19.742188 23.605469 19.878906 23.015625 20.035156 L 23.304688 18.546875 C 24.320312 18.289062 24.984375 18.191406 25.738281 18.191406 C 27.488281 18.191406 28.414062 18.867188 28.414062 20.136719 C 28.425781 20.476562 28.308594 21.152344 28.246094 21.453125 C 28.179688 21.882812 27.695312 24.390625 27.644531 24.984375 Z M 26.15625 22.023438 C 25.945312 22.003906 25.851562 21.996094 25.703125 21.996094 C 24.550781 21.996094 23.964844 22.335938 23.964844 23 C 23.964844 23.417969 24.25 23.679688 24.695312 23.679688 C 25.523438 23.679688 26.121094 23 26.15625 22.023438 Z M 26.15625 22.023438 "/>
<path style=" stroke:none;fill-rule:nonzero;fill:rgb(100%,100%,100%);fill-opacity:1;" d="M 43.757812 24.878906 C 43.203125 25.027344 42.769531 25.09375 42.300781 25.09375 C 41.265625 25.09375 40.699219 24.574219 40.699219 23.644531 C 40.664062 23.390625 40.917969 22.210938 40.976562 21.882812 C 41.035156 21.554688 41.933594 16.757812 41.933594 16.757812 L 43.945312 16.757812 L 43.640625 18.34375 L 44.675781 18.34375 L 44.394531 19.964844 L 43.355469 19.964844 C 43.355469 19.964844 42.785156 22.777344 42.785156 22.992188 C 42.785156 23.332031 42.996094 23.480469 43.480469 23.480469 C 43.710938 23.480469 43.886719 23.460938 44.023438 23.417969 L 43.757812 24.878906 "/>
<path style=" stroke:none;fill-rule:nonzero;fill:rgb(100%,100%,100%);fill-opacity:1;" d="M 53.773438 21.101562 C 53.773438 22.597656 53.148438 23.484375 52.164062 23.484375 C 51.445312 23.492188 51.007812 22.902344 51.007812 22.015625 C 51.007812 20.960938 51.644531 19.773438 52.664062 19.773438 C 53.488281 19.773438 53.773438 20.417969 53.773438 21.101562 Z M 55.945312 21.144531 C 55.945312 19.484375 54.839844 18.191406 52.753906 18.191406 C 50.359375 18.191406 48.808594 19.765625 48.808594 22.082031 C 48.808594 23.738281 49.722656 25.09375 51.992188 25.09375 C 54.285156 25.09375 55.945312 23.890625 55.945312 21.144531 Z M 55.945312 21.144531 "/>
<path style=" stroke:none;fill-rule:nonzero;fill:rgb(100%,100%,100%);fill-opacity:1;" d="M 45.550781 18.34375 C 45.292969 20.398438 44.84375 22.480469 44.488281 24.539062 L 44.402344 24.984375 L 46.4375 24.984375 C 47.167969 21.011719 47.414062 19.878906 48.953125 20.277344 L 49.691406 18.398438 C 48.617188 18.011719 47.929688 18.5625 47.304688 19.347656 C 47.359375 18.996094 47.46875 18.65625 47.441406 18.34375 L 45.550781 18.34375 "/>
<path style=" stroke:none;fill-rule:nonzero;fill:rgb(100%,100%,100%);fill-opacity:1;" d="M 21.046875 24.984375 L 19.023438 24.984375 L 20.226562 18.746094 L 17.453125 24.984375 L 15.605469 24.984375 L 15.269531 18.78125 L 14.0625 24.984375 L 12.222656 24.984375 L 13.789062 16.871094 L 16.957031 16.871094 L 17.121094 21.894531 L 19.351562 16.871094 L 22.644531 16.871094 L 21.046875 24.984375 "/>
</g>
</svg>
