<?xml version="1.0" encoding="UTF-8"?>
<svg xmlns="http://www.w3.org/2000/svg" xmlns:xlink="http://www.w3.org/1999/xlink" width="60pt" height="60pt" viewBox="0 0 60 60" version="1.1">
<g id="surface1">
<path style=" stroke:none;fill-rule:nonzero;fill:rgb(2.745098%,66.27451%,88.627451%);fill-opacity:1;" d="M 30 43.332031 C 33.617188 40.09375 35.90625 35.332031 35.90625 30 C 35.90625 24.667969 33.617188 20 30 16.667969 C 26.855469 13.808594 22.570312 12 18 12 C 8.09375 12 0 20.09375 0 30 C 0 39.90625 8.09375 47.90625 18 47.90625 C 22.570312 48 26.855469 46.191406 30 43.332031 Z M 30 43.332031 "/>
<path style=" stroke:none;fill-rule:nonzero;fill:rgb(0%,61.568627%,86.666667%);fill-opacity:1;" d="M 0 30 C 0 39.90625 8.09375 47.90625 18 47.90625 C 22.667969 47.90625 26.855469 46.191406 30 43.238281 C 33.617188 40 35.90625 35.238281 35.90625 29.90625 C 35.90625 24.570312 33.617188 20 30 16.667969 C 26.855469 13.808594 22.570312 12 18 12 "/>
<path style=" stroke:none;fill-rule:nonzero;fill:rgb(0.784314%,51.764706%,80%);fill-opacity:1;" d="M 30 16.667969 C 26.855469 13.808594 22.570312 12 18 12 C 17.714844 12 17.429688 12 17.144531 12 C 11.523438 16.09375 7.90625 22.667969 7.90625 30 C 7.90625 37.332031 11.523438 43.90625 17.046875 47.90625 C 17.332031 47.90625 17.617188 47.90625 17.90625 47.90625 C 22.570312 47.90625 26.761719 46.191406 29.90625 43.238281 C 33.523438 40 35.808594 35.238281 35.808594 29.90625 C 35.808594 24.570312 33.617188 20 30 16.667969 Z M 30 16.667969 "/>
<path style=" stroke:none;fill-rule:nonzero;fill:rgb(100%,16.078431%,34.117647%);fill-opacity:1;" d="M 42.09375 12 C 37.429688 12 33.238281 13.714844 30 16.667969 C 29.332031 17.238281 28.761719 17.90625 28.191406 18.570312 L 31.808594 18.570312 C 32.285156 19.144531 32.761719 19.808594 33.144531 20.476562 L 26.761719 20.476562 C 26.382812 21.144531 26 21.714844 25.714844 22.382812 L 34.191406 22.382812 C 34.476562 23.046875 34.761719 23.617188 34.953125 24.285156 L 25.046875 24.285156 C 24.855469 24.953125 24.667969 25.523438 24.476562 26.191406 L 35.523438 26.191406 C 35.808594 27.429688 35.90625 28.667969 35.90625 30 C 35.90625 32 35.617188 33.90625 34.953125 35.714844 L 25.046875 35.714844 C 25.238281 36.382812 25.523438 36.953125 25.808594 37.617188 L 34.285156 37.617188 C 34 38.285156 33.617188 38.953125 33.238281 39.523438 L 26.855469 39.523438 C 27.238281 40.191406 27.714844 40.855469 28.191406 41.429688 L 31.808594 41.429688 C 31.238281 42.09375 30.667969 42.761719 30 43.332031 C 33.238281 46.191406 37.429688 48 42.09375 48 C 52 48 60 40 60 30.09375 C 60 20.09375 52 12 42.09375 12 Z M 42.09375 12 "/>
<path style=" stroke:none;fill-rule:nonzero;fill:rgb(92.941176%,10.980392%,18.039216%);fill-opacity:1;" d="M 42.09375 12 C 37.429688 12 33.238281 13.714844 30 16.667969 C 29.332031 17.238281 28.761719 17.90625 28.191406 18.570312 L 31.808594 18.570312 C 32.285156 19.144531 32.761719 19.808594 33.144531 20.476562 L 26.761719 20.476562 C 26.382812 21.144531 26 21.714844 25.714844 22.382812 L 34.191406 22.382812 C 34.476562 23.046875 34.761719 23.617188 34.953125 24.285156 L 25.046875 24.285156 C 24.855469 24.953125 24.667969 25.523438 24.476562 26.191406 L 35.523438 26.191406 C 35.808594 27.429688 35.90625 28.667969 35.90625 30 C 35.90625 32 35.617188 33.90625 34.953125 35.714844 L 25.046875 35.714844 C 25.238281 36.382812 25.523438 36.953125 25.808594 37.617188 L 34.285156 37.617188 C 34 38.285156 33.617188 38.953125 33.238281 39.523438 L 26.855469 39.523438 C 27.238281 40.191406 27.714844 40.855469 28.191406 41.429688 L 31.808594 41.429688 C 31.238281 42.09375 30.667969 42.761719 30 43.332031 C 33.238281 46.191406 37.429688 48 42.09375 48 C 52 48 60 40 60 30.09375 "/>
<path style=" stroke:none;fill-rule:nonzero;fill:rgb(1.568627%,40%,70.980392%);fill-opacity:1;" d="M 30 43.332031 C 33.617188 40.09375 35.90625 35.332031 35.90625 30 C 35.90625 24.667969 33.617188 20 30 16.667969 Z M 30 43.332031 "/>
<path style=" stroke:none;fill-rule:nonzero;fill:rgb(100%,100%,100%);fill-opacity:1;" d="M 53.808594 33.90625 C 53.808594 33.617188 54.09375 33.332031 54.382812 33.332031 C 54.667969 33.332031 54.953125 33.617188 54.953125 33.90625 C 54.953125 34.191406 54.667969 34.476562 54.382812 34.476562 C 54.09375 34.476562 53.808594 34.191406 53.808594 33.90625 Z M 54.382812 34.382812 C 54.667969 34.382812 54.761719 34.191406 54.761719 33.90625 C 54.761719 33.617188 54.570312 33.523438 54.382812 33.523438 C 54.09375 33.523438 53.90625 33.714844 53.90625 33.90625 C 53.90625 34.09375 54.191406 34.382812 54.382812 34.382812 Z M 54.382812 34.09375 L 54.285156 34.09375 L 54.285156 33.617188 L 54.476562 33.617188 C 54.570312 33.617188 54.570312 33.617188 54.570312 33.617188 L 54.667969 33.714844 C 54.667969 33.808594 54.667969 33.808594 54.570312 33.808594 L 54.667969 34 L 54.570312 34 L 54.476562 33.808594 L 54.382812 33.808594 Z M 54.382812 33.808594 C 54.476562 33.808594 54.476562 33.808594 54.476562 33.808594 C 54.476562 33.808594 54.476562 33.808594 54.476562 33.714844 L 54.382812 33.714844 Z M 54.382812 33.808594 "/>
<path style=" stroke:none;fill-rule:nonzero;fill:rgb(81.960784%,3.529412%,29.411765%);fill-opacity:1;" d="M 30 16.667969 C 29.332031 17.238281 28.761719 17.90625 28.191406 18.570312 L 31.808594 18.570312 C 32.285156 19.144531 32.761719 19.808594 33.144531 20.476562 L 26.761719 20.476562 C 26.382812 21.144531 26 21.714844 25.714844 22.382812 L 34.191406 22.382812 C 34.476562 23.046875 34.761719 23.617188 34.953125 24.285156 L 25.046875 24.285156 C 24.855469 24.953125 24.667969 25.523438 24.476562 26.191406 L 35.523438 26.191406 C 35.808594 27.429688 35.90625 28.667969 35.90625 30 C 35.90625 32 35.617188 33.90625 34.953125 35.714844 L 25.046875 35.714844 C 25.238281 36.382812 25.523438 36.953125 25.808594 37.617188 L 34.285156 37.617188 C 34 38.285156 33.617188 38.953125 33.238281 39.523438 L 26.855469 39.523438 C 27.238281 40.191406 27.714844 40.855469 28.191406 41.429688 L 31.808594 41.429688 C 31.238281 42.09375 30.667969 42.761719 30 43.332031 C 33.238281 46.191406 37.429688 48 42.09375 48 C 42.382812 48 42.667969 48 42.953125 48 C 48.476562 44 52.09375 37.429688 52.09375 30.09375 C 52.09375 22.761719 48.476562 16.191406 42.953125 12.191406 C 42.667969 12.191406 42.382812 12.191406 42.09375 12.191406 C 37.429688 12 33.238281 13.808594 30 16.667969 Z M 30 16.667969 "/>
<path style=" stroke:none;fill-rule:nonzero;fill:rgb(100%,100%,100%);fill-opacity:1;" d="M 15.714844 34.476562 L 13.429688 34.476562 L 14.761719 27.523438 L 11.714844 34.476562 L 9.714844 34.476562 L 9.332031 27.523438 L 8 34.476562 L 6 34.476562 L 7.714844 25.332031 L 11.238281 25.332031 L 11.429688 31.046875 L 13.90625 25.332031 L 17.523438 25.332031 Z M 15.714844 34.476562 "/>
<path style=" stroke:none;fill-rule:nonzero;fill:rgb(86.27451%,89.803922%,89.803922%);fill-opacity:1;" d="M 13.523438 30.476562 L 14.855469 27.523438 L 13.808594 33.046875 C 13.90625 33.523438 14 34.09375 14.191406 34.570312 L 15.714844 34.570312 L 17.429688 25.429688 L 14.09375 25.429688 C 13.714844 26.855469 13.429688 28.476562 13.429688 30.09375 C 13.523438 30.191406 13.523438 30.285156 13.523438 30.476562 Z M 13.523438 30.476562 "/>
<path style=" stroke:none;fill-rule:nonzero;fill:rgb(86.27451%,89.803922%,89.803922%);fill-opacity:1;" d="M 40.667969 34.382812 C 40 34.570312 39.617188 34.667969 39.046875 34.667969 C 37.90625 34.667969 37.332031 34.09375 37.332031 33.046875 C 37.332031 32.855469 37.332031 32.667969 37.429688 32.382812 L 37.523438 31.617188 L 37.617188 31.046875 L 38.667969 25.429688 L 40.855469 25.429688 L 40.570312 27.144531 L 41.714844 27.144531 L 41.429688 28.855469 L 40.285156 28.855469 L 39.714844 31.90625 C 39.714844 32 39.617188 32.191406 39.617188 32.191406 C 39.617188 32.570312 39.90625 32.761719 40.382812 32.761719 C 40.667969 32.761719 40.855469 32.761719 40.953125 32.667969 Z M 40.667969 34.382812 "/>
<path style=" stroke:none;fill-rule:nonzero;fill:rgb(86.27451%,89.803922%,89.803922%);fill-opacity:1;" d="M 47.238281 27.144531 C 47.046875 27.046875 47.046875 27.046875 46.953125 27.046875 C 46.855469 27.046875 46.761719 27.046875 46.761719 26.953125 C 46.667969 26.953125 46.667969 26.953125 46.476562 26.953125 C 45.714844 26.953125 45.238281 27.238281 44.570312 28.191406 L 44.761719 27.046875 L 42.761719 27.046875 L 41.429688 34.476562 L 43.714844 34.476562 C 44.476562 29.90625 44.855469 29.144531 45.90625 29.144531 C 46 29.144531 46.09375 29.144531 46.191406 29.144531 L 46.476562 29.238281 Z M 47.238281 27.144531 "/>
<path style=" stroke:none;fill-rule:nonzero;fill:rgb(86.27451%,89.803922%,89.803922%);fill-opacity:1;" d="M 31.808594 29.429688 C 31.808594 30.382812 32.382812 31.046875 33.523438 31.429688 C 34.476562 31.808594 34.570312 31.90625 34.570312 32.285156 C 34.570312 32.761719 34.191406 32.953125 33.238281 32.953125 C 32.570312 32.953125 31.90625 32.855469 31.238281 32.667969 L 30.953125 34.382812 L 31.046875 34.382812 L 31.429688 34.476562 C 31.523438 34.476562 31.808594 34.476562 32 34.476562 C 32.570312 34.570312 32.953125 34.570312 33.238281 34.570312 C 35.617188 34.570312 36.761719 33.808594 36.761719 32.09375 C 36.761719 31.046875 36.285156 30.476562 35.144531 30 C 34.191406 29.617188 34.09375 29.523438 34.09375 29.238281 C 34.09375 28.855469 34.476562 28.667969 35.238281 28.667969 C 35.617188 28.667969 36.285156 28.667969 36.855469 28.761719 L 37.144531 27.046875 C 36.570312 26.953125 35.714844 26.953125 35.144531 26.953125 C 32.667969 26.953125 31.808594 28.09375 31.808594 29.429688 Z M 31.808594 29.429688 "/>
<path style=" stroke:none;fill-rule:nonzero;fill:rgb(86.27451%,89.803922%,89.803922%);fill-opacity:1;" d="M 22.953125 34.476562 L 21.144531 34.476562 L 21.144531 33.714844 C 20.570312 34.285156 19.808594 34.570312 18.761719 34.570312 C 17.523438 34.570312 16.761719 33.714844 16.761719 32.570312 C 16.761719 30.761719 18.191406 29.714844 20.667969 29.714844 C 20.953125 29.714844 21.238281 29.714844 21.617188 29.714844 C 21.714844 29.429688 21.714844 29.332031 21.714844 29.238281 C 21.714844 28.761719 21.332031 28.570312 20.285156 28.570312 C 19.617188 28.570312 18.953125 28.667969 18.476562 28.761719 L 18.191406 28.855469 L 18 28.855469 L 18.285156 27.238281 C 19.429688 26.953125 20.09375 26.855469 20.953125 26.855469 C 22.855469 26.855469 23.90625 27.617188 23.90625 29.046875 C 23.90625 29.429688 23.90625 29.714844 23.714844 30.570312 L 23.238281 33.238281 L 23.144531 33.714844 L 23.046875 34.09375 L 23.046875 34.382812 Z M 21.332031 31.144531 C 21.046875 31.144531 20.953125 31.144531 20.855469 31.144531 C 19.617188 31.144531 18.953125 31.523438 18.953125 32.285156 C 18.953125 32.761719 19.238281 33.046875 19.714844 33.046875 C 20.667969 33.046875 21.332031 32.285156 21.332031 31.144531 Z M 21.332031 31.144531 "/>
<path style=" stroke:none;fill-rule:nonzero;fill:rgb(86.27451%,89.803922%,89.803922%);fill-opacity:1;" d="M 30.285156 34.285156 C 29.523438 34.476562 28.761719 34.570312 28 34.570312 C 25.523438 34.570312 24.191406 33.429688 24.191406 31.238281 C 24.191406 28.667969 25.808594 26.855469 28.09375 26.855469 C 29.90625 26.855469 31.046875 27.90625 31.046875 29.523438 C 31.046875 30.09375 30.953125 30.570312 30.761719 31.332031 L 26.285156 31.332031 C 26.285156 31.429688 26.285156 31.523438 26.285156 31.617188 C 26.285156 32.476562 26.953125 32.953125 28.191406 32.953125 C 29.046875 32.953125 29.714844 32.855469 30.476562 32.476562 Z M 29.144531 29.90625 C 29.144531 29.808594 29.144531 29.617188 29.144531 29.523438 C 29.144531 28.953125 28.761719 28.570312 28.09375 28.570312 C 27.429688 28.570312 26.855469 29.046875 26.667969 29.90625 Z M 29.144531 29.90625 "/>
<path style=" stroke:none;fill-rule:nonzero;fill:rgb(100%,100%,100%);fill-opacity:1;" d="M 54.191406 31.144531 C 53.808594 33.617188 52.09375 34.667969 49.808594 34.667969 C 47.332031 34.667969 46.285156 33.144531 46.285156 31.238281 C 46.285156 28.667969 48 26.855469 50.667969 26.855469 C 52.953125 26.855469 54.191406 28.382812 54.191406 30.191406 C 54.191406 30.667969 54.191406 30.667969 54.191406 31.144531 Z M 51.808594 30.191406 C 51.808594 29.429688 51.523438 28.761719 50.570312 28.761719 C 49.429688 28.761719 48.761719 30.09375 48.761719 31.332031 C 48.761719 32.285156 49.238281 32.953125 50 32.953125 C 50.476562 32.953125 51.523438 32.285156 51.714844 31.144531 C 51.808594 30.761719 51.808594 30.476562 51.808594 30.191406 Z M 51.808594 30.191406 "/>
<path style=" stroke:none;fill-rule:nonzero;fill:rgb(100%,100%,100%);fill-opacity:1;" d="M 46.382812 32.09375 C 46.476562 31.429688 46.570312 30.667969 46.570312 30 C 46.570312 29.90625 46.570312 29.808594 46.570312 29.808594 C 46.476562 30.285156 46.382812 30.761719 46.382812 31.332031 C 46.285156 31.523438 46.285156 31.808594 46.382812 32.09375 Z M 46.382812 32.09375 "/>
</g>
</svg>
