<?xml version="1.0" encoding="UTF-8"?>
<svg xmlns="http://www.w3.org/2000/svg" xmlns:xlink="http://www.w3.org/1999/xlink" width="60pt" height="60pt" viewBox="0 0 60 60" version="1.1">
<g id="surface1">
<path style=" stroke:none;fill-rule:nonzero;fill:rgb(100%,71.372549%,0%);fill-opacity:1;" d="M 60 30 C 60 39.90625 52 48 42 48 C 32.09375 48 24 39.90625 24 30 C 24 20.09375 32 12 41.90625 12 C 52 12 60 20.09375 60 30 Z M 60 30 "/>
<path style=" stroke:none;fill-rule:nonzero;fill:rgb(96.862745%,59.607843%,11.372549%);fill-opacity:1;" d="M 42 12 C 51.90625 12 60 20.09375 60 30 C 60 39.90625 52 48 42 48 C 32.09375 48 24 39.90625 24 30 "/>
<path style=" stroke:none;fill-rule:nonzero;fill:rgb(100%,52.156863%,0%);fill-opacity:1;" d="M 42 12 C 51.90625 12 60 20.09375 60 30 C 60 39.90625 52 48 42 48 "/>
<path style=" stroke:none;fill-rule:nonzero;fill:rgb(100%,31.372549%,31.372549%);fill-opacity:1;" d="M 17.808594 12 C 8 12.09375 0 20.09375 0 30 C 0 39.90625 8 48 18 48 C 22.667969 48 26.855469 46.191406 30.09375 43.332031 C 30.761719 42.761719 31.332031 42.09375 31.90625 41.429688 L 28.191406 41.429688 C 27.714844 40.855469 27.238281 40.191406 26.855469 39.617188 L 33.238281 39.617188 C 33.617188 39.046875 34 38.382812 34.285156 37.714844 L 25.808594 37.714844 C 25.523438 37.144531 25.238281 36.476562 25.046875 35.808594 L 34.953125 35.808594 C 35.523438 34 35.90625 32.09375 35.90625 30.09375 C 35.90625 28.761719 35.714844 27.523438 35.523438 26.285156 L 24.476562 26.285156 C 24.570312 25.617188 24.761719 25.046875 24.953125 24.382812 L 34.855469 24.382812 C 34.667969 23.714844 34.382812 23.046875 34.09375 22.476562 L 25.714844 22.476562 C 26 21.808594 26.382812 21.238281 26.761719 20.570312 L 33.144531 20.570312 C 32.761719 19.90625 32.285156 19.238281 31.714844 18.667969 L 28.191406 18.667969 C 28.761719 18 29.332031 17.429688 30 16.855469 C 26.855469 13.90625 22.570312 12.191406 17.90625 12.191406 C 17.90625 12 17.90625 12 17.808594 12 Z M 17.808594 12 "/>
<path style=" stroke:none;fill-rule:nonzero;fill:rgb(89.803922%,15.686275%,21.176471%);fill-opacity:1;" d="M 0 30 C 0 39.90625 8 48 18 48 C 22.667969 48 26.855469 46.191406 30.09375 43.332031 C 30.761719 42.761719 31.332031 42.09375 31.90625 41.429688 L 28.191406 41.429688 C 27.714844 40.855469 27.238281 40.191406 26.855469 39.617188 L 33.238281 39.617188 C 33.617188 39.046875 34 38.382812 34.285156 37.714844 L 25.808594 37.714844 C 25.523438 37.144531 25.238281 36.476562 25.046875 35.808594 L 34.953125 35.808594 C 35.523438 34 35.90625 32.09375 35.90625 30.09375 C 35.90625 28.761719 35.714844 27.523438 35.523438 26.285156 L 24.476562 26.285156 C 24.570312 25.617188 24.761719 25.046875 24.953125 24.382812 L 34.855469 24.382812 C 34.667969 23.714844 34.382812 23.046875 34.09375 22.476562 L 25.714844 22.476562 C 26 21.808594 26.382812 21.238281 26.761719 20.570312 L 33.144531 20.570312 C 32.761719 19.90625 32.285156 19.238281 31.714844 18.667969 L 28.191406 18.667969 C 28.761719 18 29.332031 17.429688 30 16.855469 C 26.855469 13.90625 22.570312 12.191406 17.90625 12.191406 L 17.808594 12.191406 "/>
<path style=" stroke:none;fill-rule:nonzero;fill:rgb(79.607843%,12.54902%,14.901961%);fill-opacity:1;" d="M 18 48 C 22.667969 48 26.855469 46.191406 30.09375 43.332031 C 30.761719 42.761719 31.332031 42.09375 31.90625 41.429688 L 28.191406 41.429688 C 27.714844 40.855469 27.238281 40.191406 26.855469 39.617188 L 33.238281 39.617188 C 33.617188 39.046875 34 38.382812 34.285156 37.714844 L 25.808594 37.714844 C 25.523438 37.144531 25.238281 36.476562 25.046875 35.808594 L 34.953125 35.808594 C 35.523438 34 35.90625 32.09375 35.90625 30.09375 C 35.90625 28.761719 35.714844 27.523438 35.523438 26.285156 L 24.476562 26.285156 C 24.570312 25.617188 24.761719 25.046875 24.953125 24.382812 L 34.855469 24.382812 C 34.667969 23.714844 34.382812 23.046875 34.09375 22.476562 L 25.714844 22.476562 C 26 21.808594 26.382812 21.238281 26.761719 20.570312 L 33.144531 20.570312 C 32.761719 19.90625 32.285156 19.238281 31.714844 18.667969 L 28.191406 18.667969 C 28.761719 18 29.332031 17.429688 30 16.855469 C 26.855469 13.90625 22.570312 12.191406 17.90625 12.191406 L 17.808594 12.191406 "/>
<path style=" stroke:none;fill-rule:nonzero;fill:rgb(100%,100%,100%);fill-opacity:1;" d="M 24.382812 34.570312 L 24.667969 32.953125 C 24.570312 32.953125 24.382812 33.046875 24.191406 33.046875 C 23.523438 33.046875 23.429688 32.667969 23.523438 32.476562 L 24.09375 29.144531 L 25.144531 29.144531 L 25.429688 27.332031 L 24.476562 27.332031 L 24.667969 26.191406 L 22.761719 26.191406 C 22.761719 26.191406 21.617188 32.476562 21.617188 33.238281 C 21.617188 34.382812 22.285156 34.855469 23.144531 34.855469 C 23.714844 34.855469 24.191406 34.667969 24.382812 34.570312 Z M 24.382812 34.570312 "/>
<path style=" stroke:none;fill-rule:nonzero;fill:rgb(100%,100%,100%);fill-opacity:1;" d="M 25.046875 31.523438 C 25.046875 34.191406 26.855469 34.855469 28.382812 34.855469 C 29.808594 34.855469 30.382812 34.570312 30.382812 34.570312 L 30.761719 32.761719 C 30.761719 32.761719 29.714844 33.238281 28.761719 33.238281 C 26.667969 33.238281 27.046875 31.714844 27.046875 31.714844 L 30.953125 31.714844 C 30.953125 31.714844 31.238281 30.476562 31.238281 30 C 31.238281 28.761719 30.570312 27.238281 28.476562 27.238281 C 26.476562 27.046875 25.046875 29.144531 25.046875 31.523438 Z M 28.382812 28.761719 C 29.429688 28.761719 29.238281 30 29.238281 30.09375 L 27.144531 30.09375 C 27.144531 30 27.332031 28.761719 28.382812 28.761719 Z M 28.382812 28.761719 "/>
<path style=" stroke:none;fill-rule:nonzero;fill:rgb(100%,100%,100%);fill-opacity:1;" d="M 40.476562 34.570312 L 40.855469 32.476562 C 40.855469 32.476562 39.90625 32.953125 39.238281 32.953125 C 37.90625 32.953125 37.332031 31.90625 37.332031 30.761719 C 37.332031 28.476562 38.476562 27.238281 39.808594 27.238281 C 40.761719 27.238281 41.523438 27.808594 41.523438 27.808594 L 41.808594 25.808594 C 41.808594 25.808594 40.667969 25.332031 39.617188 25.332031 C 37.429688 25.332031 35.238281 27.238281 35.238281 30.855469 C 35.238281 33.238281 36.382812 34.855469 38.667969 34.855469 C 39.429688 34.855469 40.476562 34.570312 40.476562 34.570312 Z M 40.476562 34.570312 "/>
<path style=" stroke:none;fill-rule:nonzero;fill:rgb(100%,100%,100%);fill-opacity:1;" d="M 13.90625 27.046875 C 12.570312 27.046875 11.617188 27.429688 11.617188 27.429688 L 11.332031 29.046875 C 11.332031 29.046875 12.191406 28.667969 13.429688 28.667969 C 14.09375 28.667969 14.667969 28.761719 14.667969 29.332031 C 14.667969 29.714844 14.570312 29.808594 14.570312 29.808594 C 14.570312 29.808594 14 29.808594 13.714844 29.808594 C 12.09375 29.808594 10.285156 30.476562 10.285156 32.667969 C 10.285156 34.382812 11.429688 34.761719 12.09375 34.761719 C 13.429688 34.761719 14 33.90625 14.09375 33.90625 L 14 34.667969 L 15.714844 34.667969 L 16.476562 29.429688 C 16.476562 27.144531 14.570312 27.046875 13.90625 27.046875 Z M 14.285156 31.332031 C 14.285156 31.617188 14.09375 33.144531 12.953125 33.144531 C 12.382812 33.144531 12.191406 32.667969 12.191406 32.382812 C 12.191406 31.90625 12.476562 31.238281 13.90625 31.238281 C 14.191406 31.332031 14.285156 31.332031 14.285156 31.332031 Z M 14.285156 31.332031 "/>
<path style=" stroke:none;fill-rule:nonzero;fill:rgb(100%,100%,100%);fill-opacity:1;" d="M 18.285156 34.761719 C 18.761719 34.761719 21.144531 34.855469 21.144531 32.285156 C 21.144531 29.90625 18.855469 30.382812 18.855469 29.429688 C 18.855469 28.953125 19.238281 28.761719 19.90625 28.761719 C 20.191406 28.761719 21.238281 28.855469 21.238281 28.855469 L 21.523438 27.144531 C 21.523438 27.144531 20.855469 26.953125 19.714844 26.953125 C 18.285156 26.953125 16.855469 27.523438 16.855469 29.429688 C 16.855469 31.617188 19.238281 31.429688 19.238281 32.285156 C 19.238281 32.855469 18.570312 32.953125 18.09375 32.953125 C 17.238281 32.953125 16.382812 32.667969 16.382812 32.667969 L 16.09375 34.382812 C 16.191406 34.570312 16.667969 34.761719 18.285156 34.761719 Z M 18.285156 34.761719 "/>
<path style=" stroke:none;fill-rule:nonzero;fill:rgb(100%,100%,100%);fill-opacity:1;" d="M 56.285156 25.523438 L 55.90625 28.09375 C 55.90625 28.09375 55.144531 27.144531 54.09375 27.144531 C 52.382812 27.144531 50.855469 29.238281 50.855469 31.714844 C 50.855469 33.238281 51.617188 34.855469 53.238281 34.855469 C 54.382812 34.855469 55.046875 34.09375 55.046875 34.09375 L 54.953125 34.761719 L 56.855469 34.761719 L 58.285156 25.617188 Z M 55.429688 30.570312 C 55.429688 31.617188 54.953125 32.953125 53.90625 32.953125 C 53.238281 32.953125 52.855469 32.382812 52.855469 31.429688 C 52.855469 29.90625 53.523438 28.953125 54.382812 28.953125 C 55.046875 28.953125 55.429688 29.429688 55.429688 30.570312 Z M 55.429688 30.570312 "/>
<path style=" stroke:none;fill-rule:nonzero;fill:rgb(100%,100%,100%);fill-opacity:1;" d="M 3.523438 34.667969 L 4.667969 27.808594 L 4.855469 34.667969 L 6.191406 34.667969 L 8.667969 27.808594 L 7.617188 34.667969 L 9.617188 34.667969 L 11.144531 25.523438 L 8 25.523438 L 6.09375 31.144531 L 6 25.523438 L 3.238281 25.523438 L 1.714844 34.667969 Z M 3.523438 34.667969 "/>
<path style=" stroke:none;fill-rule:nonzero;fill:rgb(100%,100%,100%);fill-opacity:1;" d="M 33.046875 34.667969 C 33.617188 31.523438 33.714844 28.953125 35.046875 29.429688 C 35.238281 28.191406 35.523438 27.714844 35.714844 27.238281 C 35.714844 27.238281 35.617188 27.238281 35.332031 27.238281 C 34.476562 27.238281 33.808594 28.382812 33.808594 28.382812 L 34 27.332031 L 32.191406 27.332031 L 30.953125 34.761719 L 33.046875 34.761719 Z M 33.046875 34.667969 "/>
<path style=" stroke:none;fill-rule:nonzero;fill:rgb(100%,100%,100%);fill-opacity:1;" d="M 44.855469 27.046875 C 43.523438 27.046875 42.570312 27.429688 42.570312 27.429688 L 42.285156 29.046875 C 42.285156 29.046875 43.144531 28.667969 44.382812 28.667969 C 45.046875 28.667969 45.617188 28.761719 45.617188 29.332031 C 45.617188 29.714844 45.523438 29.808594 45.523438 29.808594 C 45.523438 29.808594 44.953125 29.808594 44.667969 29.808594 C 43.046875 29.808594 41.238281 30.476562 41.238281 32.667969 C 41.238281 34.382812 42.382812 34.761719 43.046875 34.761719 C 44.382812 34.761719 44.953125 33.90625 45.046875 33.90625 L 44.953125 34.667969 L 46.667969 34.667969 L 47.429688 29.429688 C 47.523438 27.144531 45.523438 27.046875 44.855469 27.046875 Z M 45.332031 31.332031 C 45.332031 31.617188 45.144531 33.144531 44 33.144531 C 43.429688 33.144531 43.238281 32.667969 43.238281 32.382812 C 43.238281 31.90625 43.523438 31.238281 44.953125 31.238281 C 45.238281 31.332031 45.238281 31.332031 45.332031 31.332031 Z M 45.332031 31.332031 "/>
<path style=" stroke:none;fill-rule:nonzero;fill:rgb(100%,100%,100%);fill-opacity:1;" d="M 49.046875 34.667969 C 49.617188 31.523438 49.714844 28.953125 51.046875 29.429688 C 51.238281 28.191406 51.523438 27.714844 51.714844 27.238281 C 51.714844 27.238281 51.617188 27.238281 51.332031 27.238281 C 50.476562 27.238281 49.808594 28.382812 49.808594 28.382812 L 50 27.332031 L 48.191406 27.332031 L 46.953125 34.761719 L 49.046875 34.761719 Z M 49.046875 34.667969 "/>
<path style=" stroke:none;fill-rule:nonzero;fill:rgb(86.27451%,89.803922%,89.803922%);fill-opacity:1;" d="M 21.429688 33.238281 C 21.429688 34.382812 22.09375 34.855469 22.953125 34.855469 C 23.617188 34.855469 24.191406 34.667969 24.382812 34.570312 L 24.667969 32.953125 C 24.570312 32.953125 24.382812 33.046875 24.191406 33.046875 C 23.523438 33.046875 23.429688 32.667969 23.523438 32.476562 L 24.09375 29.144531 L 25.144531 29.144531 L 25.429688 27.332031 L 24.476562 27.332031 L 24.667969 26.191406 "/>
<path style=" stroke:none;fill-rule:nonzero;fill:rgb(86.27451%,89.803922%,89.803922%);fill-opacity:1;" d="M 26 31.523438 C 26 34.191406 26.855469 34.855469 28.382812 34.855469 C 29.808594 34.855469 30.382812 34.570312 30.382812 34.570312 L 30.761719 32.761719 C 30.761719 32.761719 29.714844 33.238281 28.761719 33.238281 C 26.667969 33.238281 27.046875 31.714844 27.046875 31.714844 L 30.953125 31.714844 C 30.953125 31.714844 31.238281 30.476562 31.238281 30 C 31.238281 28.761719 30.570312 27.238281 28.476562 27.238281 C 26.476562 27.046875 26 29.144531 26 31.523438 Z M 28.382812 28.761719 C 29.429688 28.761719 29.617188 30 29.617188 30.09375 L 27.144531 30.09375 C 27.144531 30 27.332031 28.761719 28.382812 28.761719 Z M 28.382812 28.761719 "/>
<path style=" stroke:none;fill-rule:nonzero;fill:rgb(86.27451%,89.803922%,89.803922%);fill-opacity:1;" d="M 40.476562 34.570312 L 40.855469 32.476562 C 40.855469 32.476562 39.90625 32.953125 39.238281 32.953125 C 37.90625 32.953125 37.332031 31.90625 37.332031 30.761719 C 37.332031 28.476562 38.476562 27.238281 39.808594 27.238281 C 40.761719 27.238281 41.523438 27.808594 41.523438 27.808594 L 41.808594 25.808594 C 41.808594 25.808594 40.667969 25.332031 39.617188 25.332031 C 37.429688 25.332031 36.191406 27.238281 36.191406 30.855469 C 36.191406 33.238281 36.382812 34.855469 38.667969 34.855469 C 39.429688 34.855469 40.476562 34.570312 40.476562 34.570312 Z M 40.476562 34.570312 "/>
<path style=" stroke:none;fill-rule:nonzero;fill:rgb(86.27451%,89.803922%,89.803922%);fill-opacity:1;" d="M 11.332031 29.144531 C 11.332031 29.144531 12.191406 28.761719 13.429688 28.761719 C 14.09375 28.761719 14.667969 28.855469 14.667969 29.429688 C 14.667969 29.808594 14.570312 29.90625 14.570312 29.90625 C 14.570312 29.90625 14 29.90625 13.714844 29.90625 C 12.09375 29.90625 10.285156 30.570312 10.285156 32.761719 C 10.285156 34.476562 11.429688 34.855469 12.09375 34.855469 C 13.429688 34.855469 14 34 14.09375 34 L 14 34.761719 L 15.714844 34.761719 L 16.476562 29.523438 C 16.476562 27.332031 14.570312 27.238281 13.808594 27.238281 M 15.238281 31.332031 C 15.238281 31.617188 14.09375 33.144531 12.953125 33.144531 C 12.382812 33.144531 12.191406 32.667969 12.191406 32.382812 C 12.191406 31.90625 12.476562 31.238281 13.90625 31.238281 C 14.191406 31.332031 15.238281 31.332031 15.238281 31.332031 Z M 15.238281 31.332031 "/>
<path style=" stroke:none;fill-rule:nonzero;fill:rgb(86.27451%,89.803922%,89.803922%);fill-opacity:1;" d="M 16.191406 34.570312 C 16.191406 34.570312 16.761719 34.761719 18.382812 34.761719 C 18.855469 34.761719 21.238281 34.855469 21.238281 32.285156 C 21.238281 29.90625 18.953125 30.382812 18.953125 29.429688 C 18.953125 28.953125 19.332031 28.761719 20 28.761719 C 20.285156 28.761719 21.332031 28.855469 21.332031 28.855469 L 21.617188 27.144531 C 21.617188 27.144531 20.953125 26.953125 19.808594 26.953125 C 18.382812 26.953125 17.90625 27.523438 17.90625 29.429688 C 17.90625 31.617188 19.332031 31.429688 19.332031 32.285156 C 19.332031 32.855469 18.667969 32.953125 18.191406 32.953125 "/>
<path style=" stroke:none;fill-rule:nonzero;fill:rgb(86.27451%,89.803922%,89.803922%);fill-opacity:1;" d="M 55.90625 28.09375 C 55.90625 28.09375 55.144531 27.144531 54.09375 27.144531 C 52.382812 27.144531 51.808594 29.238281 51.808594 31.714844 C 51.808594 33.238281 51.617188 34.855469 53.238281 34.855469 C 54.382812 34.855469 55.046875 34.09375 55.046875 34.09375 L 54.953125 34.761719 L 56.855469 34.761719 L 58.285156 25.617188 M 55.808594 30.570312 C 55.808594 31.617188 54.953125 32.953125 53.90625 32.953125 C 53.238281 32.953125 52.855469 32.382812 52.855469 31.429688 C 52.855469 29.90625 53.523438 28.953125 54.382812 28.953125 C 55.046875 28.953125 55.808594 29.429688 55.808594 30.570312 Z M 55.808594 30.570312 "/>
<path style=" stroke:none;fill-rule:nonzero;fill:rgb(86.27451%,89.803922%,89.803922%);fill-opacity:1;" d="M 3.523438 34.667969 L 4.667969 27.808594 L 4.855469 34.667969 L 6.191406 34.667969 L 8.667969 27.808594 L 7.617188 34.667969 L 9.617188 34.667969 L 11.144531 25.523438 L 8.761719 25.523438 L 6.09375 31.144531 L 6 25.523438 L 4.953125 25.523438 L 1.714844 34.667969 Z M 3.523438 34.667969 "/>
<path style=" stroke:none;fill-rule:nonzero;fill:rgb(86.27451%,89.803922%,89.803922%);fill-opacity:1;" d="M 31.046875 34.667969 L 33.046875 34.667969 C 33.617188 31.523438 33.714844 28.953125 35.046875 29.429688 C 35.238281 28.191406 35.523438 27.714844 35.714844 27.238281 C 35.714844 27.238281 35.617188 27.238281 35.332031 27.238281 C 34.476562 27.238281 33.808594 28.382812 33.808594 28.382812 L 34 27.332031 "/>
<path style=" stroke:none;fill-rule:nonzero;fill:rgb(86.27451%,89.803922%,89.803922%);fill-opacity:1;" d="M 42.285156 29.144531 C 42.285156 29.144531 43.144531 28.761719 44.382812 28.761719 C 45.046875 28.761719 45.617188 28.855469 45.617188 29.429688 C 45.617188 29.808594 45.523438 29.90625 45.523438 29.90625 C 45.523438 29.90625 44.953125 29.90625 44.667969 29.90625 C 43.046875 29.90625 41.238281 30.570312 41.238281 32.761719 C 41.238281 34.476562 42.382812 34.855469 43.046875 34.855469 C 44.382812 34.855469 44.953125 34 45.046875 34 L 44.953125 34.761719 L 46.667969 34.761719 L 47.429688 29.523438 C 47.429688 27.332031 45.523438 27.238281 44.761719 27.238281 M 46.191406 31.332031 C 46.191406 31.617188 45.046875 33.144531 43.90625 33.144531 C 43.332031 33.144531 43.144531 32.667969 43.144531 32.382812 C 43.144531 31.90625 43.429688 31.238281 44.855469 31.238281 C 45.238281 31.332031 46.191406 31.332031 46.191406 31.332031 Z M 46.191406 31.332031 "/>
<path style=" stroke:none;fill-rule:nonzero;fill:rgb(86.27451%,89.803922%,89.803922%);fill-opacity:1;" d="M 47.046875 34.667969 L 49.046875 34.667969 C 49.617188 31.523438 49.714844 28.953125 51.046875 29.429688 C 51.238281 28.191406 51.523438 27.714844 51.714844 27.238281 C 51.714844 27.238281 51.617188 27.238281 51.332031 27.238281 C 50.476562 27.238281 49.808594 28.382812 49.808594 28.382812 L 50 27.332031 "/>
</g>
</svg>
