<?xml version="1.0" encoding="UTF-8"?>
<svg xmlns="http://www.w3.org/2000/svg" xmlns:xlink="http://www.w3.org/1999/xlink" width="79pt" height="50pt" viewBox="0 0 79 50" version="1.1">
<g id="surface1">
<path style=" stroke:none;fill-rule:nonzero;fill:rgb(85.098039%,13.333333%,16.470588%);fill-opacity:1;" d="M 45.714844 25 C 45.714844 35.523438 37.25 44.054688 26.808594 44.054688 C 16.363281 44.054688 7.898438 35.523438 7.898438 25 C 7.898438 14.476562 16.363281 5.945312 26.808594 5.945312 C 37.25 5.945312 45.714844 14.476562 45.714844 25 "/>
<path style=" stroke:none;fill-rule:nonzero;fill:rgb(93.333333%,62.352941%,17.647059%);fill-opacity:1;" d="M 52.191406 5.945312 C 47.304688 5.945312 42.855469 7.8125 39.5 10.878906 C 38.816406 11.503906 38.175781 12.175781 37.589844 12.894531 L 41.410156 12.894531 C 41.933594 13.535156 42.414062 14.207031 42.851562 14.910156 L 36.148438 14.910156 C 35.746094 15.5625 35.382812 16.234375 35.058594 16.929688 L 43.941406 16.929688 C 44.246094 17.585938 44.511719 18.261719 44.742188 18.945312 L 34.257812 18.945312 C 34.039062 19.609375 33.855469 20.28125 33.710938 20.964844 L 45.289062 20.964844 C 45.574219 22.292969 45.714844 23.644531 45.714844 25 C 45.714844 27.117188 45.371094 29.152344 44.742188 31.054688 L 34.257812 31.054688 C 34.488281 31.742188 34.753906 32.414062 35.058594 33.070312 L 43.941406 33.070312 C 43.617188 33.765625 43.253906 34.4375 42.851562 35.089844 L 36.148438 35.089844 C 36.585938 35.792969 37.066406 36.464844 37.589844 37.105469 L 41.410156 37.105469 C 40.824219 37.824219 40.183594 38.5 39.5 39.125 C 42.855469 42.1875 47.304688 44.054688 52.191406 44.054688 C 62.632812 44.054688 71.101562 35.523438 71.101562 25 C 71.101562 14.476562 62.632812 5.945312 52.191406 5.945312 "/>
<path style=" stroke:none;fill-rule:nonzero;fill:rgb(0%,0%,0%);fill-opacity:1;" d="M 68.578125 35.621094 C 68.578125 35.28125 68.851562 35.007812 69.191406 35.007812 C 69.527344 35.007812 69.800781 35.28125 69.800781 35.621094 C 69.800781 35.960938 69.527344 36.238281 69.191406 36.238281 C 68.851562 36.238281 68.578125 35.960938 68.578125 35.621094 Z M 69.191406 36.089844 C 69.445312 36.089844 69.65625 35.878906 69.65625 35.621094 C 69.65625 35.496094 69.605469 35.378906 69.519531 35.292969 C 69.429688 35.203125 69.3125 35.15625 69.191406 35.15625 C 69.066406 35.152344 68.949219 35.203125 68.863281 35.292969 C 68.773438 35.378906 68.726562 35.496094 68.726562 35.621094 C 68.726562 35.878906 68.933594 36.089844 69.191406 36.089844 Z M 69.109375 35.890625 L 68.984375 35.890625 L 68.984375 35.351562 L 69.210938 35.351562 C 69.257812 35.351562 69.304688 35.351562 69.347656 35.378906 C 69.390625 35.40625 69.414062 35.460938 69.414062 35.515625 C 69.414062 35.574219 69.378906 35.632812 69.320312 35.652344 L 69.421875 35.890625 L 69.28125 35.890625 L 69.199219 35.679688 L 69.109375 35.679688 Z M 69.109375 35.585938 L 69.175781 35.585938 C 69.203125 35.585938 69.230469 35.589844 69.253906 35.574219 C 69.273438 35.5625 69.285156 35.535156 69.285156 35.511719 C 69.285156 35.492188 69.273438 35.46875 69.253906 35.457031 C 69.234375 35.445312 69.199219 35.449219 69.175781 35.449219 L 69.109375 35.449219 Z M 22.390625 27.085938 C 22.175781 27.0625 22.082031 27.054688 21.933594 27.054688 C 20.769531 27.054688 20.183594 27.457031 20.183594 28.25 C 20.183594 28.738281 20.46875 29.050781 20.917969 29.050781 C 21.753906 29.050781 22.355469 28.25 22.390625 27.085938 Z M 23.886719 30.589844 L 22.183594 30.589844 L 22.222656 29.773438 C 21.703125 30.417969 21.011719 30.722656 20.070312 30.722656 C 18.960938 30.722656 18.195312 29.847656 18.195312 28.578125 C 18.195312 26.664062 19.523438 25.546875 21.800781 25.546875 C 22.035156 25.546875 22.332031 25.566406 22.636719 25.609375 C 22.699219 25.347656 22.71875 25.238281 22.71875 25.097656 C 22.71875 24.578125 22.359375 24.382812 21.402344 24.382812 C 20.398438 24.371094 19.570312 24.625 19.226562 24.738281 C 19.25 24.605469 19.511719 22.96875 19.511719 22.96875 C 20.535156 22.667969 21.210938 22.550781 21.96875 22.550781 C 23.730469 22.550781 24.664062 23.351562 24.664062 24.855469 C 24.667969 25.261719 24.601562 25.757812 24.496094 26.414062 C 24.320312 27.554688 23.9375 29.996094 23.886719 30.589844 Z M 17.335938 30.589844 L 15.285156 30.589844 L 16.460938 23.160156 L 13.835938 30.589844 L 12.4375 30.589844 L 12.265625 23.199219 L 11.027344 30.589844 L 9.105469 30.589844 L 10.710938 20.921875 L 13.664062 20.921875 L 13.84375 26.332031 L 15.640625 20.921875 L 18.925781 20.921875 L 17.335938 30.589844 M 54.726562 27.085938 C 54.515625 27.0625 54.417969 27.054688 54.269531 27.054688 C 53.109375 27.054688 52.519531 27.457031 52.519531 28.25 C 52.519531 28.738281 52.804688 29.050781 53.253906 29.050781 C 54.089844 29.050781 54.695312 28.25 54.726562 27.085938 Z M 56.222656 30.589844 L 54.523438 30.589844 L 54.558594 29.773438 C 54.042969 30.417969 53.347656 30.722656 52.410156 30.722656 C 51.296875 30.722656 50.535156 29.847656 50.535156 28.578125 C 50.535156 26.664062 51.859375 25.546875 54.136719 25.546875 C 54.371094 25.546875 54.667969 25.566406 54.972656 25.609375 C 55.039062 25.347656 55.054688 25.238281 55.054688 25.097656 C 55.054688 24.578125 54.695312 24.382812 53.738281 24.382812 C 52.734375 24.371094 51.90625 24.625 51.566406 24.738281 C 51.585938 24.605469 51.851562 22.96875 51.851562 22.96875 C 52.875 22.667969 53.546875 22.550781 54.304688 22.550781 C 56.070312 22.550781 57.003906 23.351562 57 24.855469 C 57.003906 25.261719 56.9375 25.757812 56.835938 26.414062 C 56.65625 27.554688 56.273438 29.996094 56.222656 30.589844 Z M 33.007812 30.46875 C 32.445312 30.648438 32.007812 30.722656 31.535156 30.722656 C 30.484375 30.722656 29.910156 30.117188 29.910156 28.996094 C 29.894531 28.648438 30.0625 27.738281 30.191406 26.902344 C 30.3125 26.167969 31.082031 21.539062 31.082031 21.539062 L 33.121094 21.539062 L 32.882812 22.726562 L 34.117188 22.726562 L 33.839844 24.617188 L 32.601562 24.617188 C 32.363281 26.113281 32.027344 27.972656 32.023438 28.222656 C 32.023438 28.625 32.238281 28.804688 32.726562 28.804688 C 32.960938 28.804688 33.140625 28.78125 33.28125 28.730469 L 33.007812 30.46875 M 39.265625 30.40625 C 38.5625 30.621094 37.886719 30.726562 37.167969 30.722656 C 34.886719 30.722656 33.695312 29.519531 33.695312 27.21875 C 33.695312 24.53125 35.210938 22.550781 37.265625 22.550781 C 38.949219 22.550781 40.023438 23.660156 40.023438 25.398438 C 40.023438 25.972656 39.949219 26.535156 39.769531 27.332031 L 35.707031 27.332031 C 35.570312 28.472656 36.292969 28.945312 37.480469 28.945312 C 38.210938 28.945312 38.871094 28.792969 39.601562 28.449219 Z M 38.117188 25.746094 C 38.128906 25.582031 38.332031 24.34375 37.167969 24.34375 C 36.519531 24.34375 36.054688 24.84375 35.863281 25.746094 Z M 25.117188 25.214844 C 25.117188 26.207031 25.59375 26.894531 26.679688 27.40625 C 27.511719 27.800781 27.640625 27.917969 27.640625 28.273438 C 27.640625 28.765625 27.273438 28.988281 26.460938 28.988281 C 25.847656 28.988281 25.277344 28.890625 24.621094 28.675781 C 24.621094 28.675781 24.351562 30.410156 24.339844 30.492188 C 24.804688 30.59375 25.222656 30.691406 26.476562 30.722656 C 28.640625 30.722656 29.640625 29.894531 29.640625 28.097656 C 29.640625 27.015625 29.222656 26.382812 28.195312 25.90625 C 27.335938 25.507812 27.234375 25.417969 27.234375 25.050781 C 27.234375 24.628906 27.578125 24.410156 28.238281 24.410156 C 28.644531 24.410156 29.191406 24.453125 29.714844 24.527344 L 30.007812 22.707031 C 29.476562 22.621094 28.667969 22.550781 28.199219 22.550781 C 25.902344 22.550781 25.109375 23.761719 25.117188 25.214844 M 49.246094 22.757812 C 49.816406 22.757812 50.347656 22.910156 51.082031 23.28125 L 51.417969 21.183594 C 51.117188 21.066406 50.058594 20.367188 49.160156 20.367188 C 47.785156 20.367188 46.625 21.054688 45.808594 22.1875 C 44.617188 21.789062 44.128906 22.59375 43.527344 23.394531 L 42.996094 23.519531 C 43.035156 23.253906 43.070312 22.992188 43.058594 22.726562 L 41.175781 22.726562 C 40.917969 25.160156 40.460938 27.625 40.101562 30.0625 L 40.007812 30.589844 L 42.0625 30.589844 C 42.40625 28.34375 42.59375 26.90625 42.707031 25.933594 L 43.480469 25.5 C 43.597656 25.070312 43.957031 24.921875 44.683594 24.941406 C 44.585938 25.472656 44.539062 26.011719 44.539062 26.550781 C 44.539062 29.125 45.914062 30.726562 48.125 30.726562 C 48.695312 30.726562 49.183594 30.648438 49.9375 30.441406 L 50.300781 28.238281 C 49.621094 28.578125 49.0625 28.734375 48.554688 28.734375 C 47.363281 28.734375 46.640625 27.847656 46.640625 26.378906 C 46.640625 24.25 47.714844 22.757812 49.246094 22.757812 "/>
<path style=" stroke:none;fill-rule:nonzero;fill:rgb(100%,100%,100%);fill-opacity:1;" d="M 17.929688 30.015625 L 15.875 30.015625 L 17.050781 22.585938 L 14.425781 30.015625 L 13.027344 30.015625 L 12.855469 22.628906 L 11.617188 30.015625 L 9.699219 30.015625 L 11.300781 20.351562 L 14.253906 20.351562 L 14.335938 26.332031 L 16.328125 20.351562 L 19.515625 20.351562 L 17.929688 30.015625 "/>
<path style=" stroke:none;fill-rule:nonzero;fill:rgb(0%,0%,0%);fill-opacity:1;" d="M 66.625 20.921875 L 66.171875 23.714844 C 65.609375 22.972656 65.007812 22.433594 64.210938 22.433594 C 63.175781 22.433594 62.230469 23.222656 61.613281 24.390625 C 60.753906 24.210938 59.867188 23.90625 59.867188 23.90625 L 59.867188 23.910156 C 59.933594 23.261719 59.960938 22.863281 59.957031 22.726562 L 58.070312 22.726562 C 57.8125 25.160156 57.359375 27.625 57 30.0625 L 56.90625 30.589844 L 58.960938 30.589844 C 59.238281 28.773438 59.449219 27.265625 59.605469 26.070312 C 60.308594 25.433594 60.660156 24.875 61.367188 24.914062 C 61.054688 25.679688 60.871094 26.558594 60.871094 27.464844 C 60.871094 29.429688 61.855469 30.726562 63.347656 30.726562 C 64.101562 30.726562 64.679688 30.464844 65.242188 29.855469 L 65.144531 30.589844 L 67.085938 30.589844 L 68.648438 20.921875 Z M 64.058594 28.773438 C 63.359375 28.773438 63.007812 28.25 63.007812 27.222656 C 63.007812 25.679688 63.667969 24.582031 64.597656 24.582031 C 65.304688 24.582031 65.6875 25.125 65.6875 26.121094 C 65.6875 27.679688 65.015625 28.773438 64.058594 28.773438 Z M 64.058594 28.773438 "/>
<path style=" stroke:none;fill-rule:nonzero;fill:rgb(100%,100%,100%);fill-opacity:1;" d="M 22.984375 26.511719 C 22.769531 26.488281 22.671875 26.480469 22.523438 26.480469 C 21.363281 26.480469 20.773438 26.882812 20.773438 27.679688 C 20.773438 28.167969 21.058594 28.480469 21.507812 28.480469 C 22.34375 28.480469 22.949219 27.675781 22.984375 26.511719 Z M 24.476562 30.015625 L 22.777344 30.015625 L 22.8125 29.203125 C 22.296875 29.84375 21.601562 30.152344 20.664062 30.152344 C 19.550781 30.152344 18.789062 29.277344 18.789062 28.003906 C 18.789062 26.089844 20.113281 24.972656 22.390625 24.972656 C 22.625 24.972656 22.921875 24.996094 23.226562 25.035156 C 23.292969 24.777344 23.308594 24.664062 23.308594 24.523438 C 23.308594 24.003906 22.953125 23.808594 21.992188 23.808594 C 20.988281 23.796875 20.160156 24.050781 19.820312 24.164062 C 19.839844 24.03125 20.105469 22.398438 20.105469 22.398438 C 21.125 22.09375 21.800781 21.980469 22.558594 21.980469 C 24.324219 21.980469 25.257812 22.777344 25.253906 24.285156 C 25.257812 24.6875 25.191406 25.1875 25.089844 25.839844 C 24.910156 26.980469 24.527344 29.421875 24.476562 30.015625 Z M 52.007812 20.609375 L 51.671875 22.707031 C 50.941406 22.335938 50.40625 22.1875 49.839844 22.1875 C 48.304688 22.1875 47.230469 23.679688 47.230469 25.808594 C 47.230469 27.273438 47.953125 28.160156 49.144531 28.160156 C 49.652344 28.160156 50.210938 28.003906 50.890625 27.664062 L 50.53125 29.867188 C 49.773438 30.074219 49.285156 30.152344 48.714844 30.152344 C 46.507812 30.152344 45.128906 28.550781 45.128906 25.980469 C 45.128906 22.523438 47.03125 20.109375 49.75 20.109375 C 50.648438 20.109375 51.707031 20.492188 52.007812 20.609375 M 55.320312 26.511719 C 55.105469 26.488281 55.011719 26.480469 54.863281 26.480469 C 53.699219 26.480469 53.109375 26.882812 53.109375 27.679688 C 53.109375 28.167969 53.398438 28.480469 53.84375 28.480469 C 54.679688 28.480469 55.285156 27.675781 55.320312 26.511719 Z M 56.8125 30.015625 L 55.113281 30.015625 L 55.152344 29.203125 C 54.632812 29.84375 53.941406 30.152344 53 30.152344 C 51.886719 30.152344 51.125 29.277344 51.125 28.003906 C 51.125 26.089844 52.453125 24.972656 54.726562 24.972656 C 54.960938 24.972656 55.257812 24.996094 55.566406 25.035156 C 55.628906 24.777344 55.644531 24.664062 55.644531 24.523438 C 55.644531 24.003906 55.289062 23.808594 54.328125 23.808594 C 53.324219 23.796875 52.496094 24.050781 52.15625 24.164062 C 52.175781 24.03125 52.441406 22.398438 52.441406 22.398438 C 53.464844 22.09375 54.136719 21.980469 54.898438 21.980469 C 56.660156 21.980469 57.59375 22.777344 57.589844 24.285156 C 57.59375 24.6875 57.527344 25.1875 57.425781 25.839844 C 57.25 26.980469 56.863281 29.421875 56.8125 30.015625 Z M 33.597656 29.894531 C 33.035156 30.074219 32.597656 30.152344 32.125 30.152344 C 31.074219 30.152344 30.503906 29.542969 30.503906 28.425781 C 30.488281 28.078125 30.652344 27.164062 30.785156 26.328125 C 30.902344 25.59375 31.671875 20.964844 31.671875 20.964844 L 33.714844 20.964844 L 33.476562 22.15625 L 34.523438 22.15625 L 34.242188 24.042969 L 33.191406 24.042969 C 32.957031 25.539062 32.617188 27.402344 32.613281 27.648438 C 32.613281 28.054688 32.828125 28.230469 33.316406 28.230469 C 33.550781 28.230469 33.730469 28.207031 33.871094 28.15625 L 33.597656 29.894531 M 39.855469 29.832031 C 39.152344 30.050781 38.476562 30.152344 37.761719 30.152344 C 35.476562 30.148438 34.285156 28.945312 34.285156 26.644531 C 34.285156 23.957031 35.800781 21.980469 37.855469 21.980469 C 39.539062 21.980469 40.613281 23.085938 40.613281 24.824219 C 40.613281 25.402344 40.539062 25.964844 40.363281 26.757812 L 36.300781 26.757812 C 36.160156 27.898438 36.886719 28.375 38.074219 28.375 C 38.800781 28.375 39.460938 28.222656 40.195312 27.878906 Z M 38.707031 25.171875 C 38.71875 25.007812 38.925781 23.769531 37.757812 23.769531 C 37.109375 23.769531 36.644531 24.269531 36.453125 25.171875 Z M 25.707031 24.640625 C 25.707031 25.632812 26.183594 26.320312 27.269531 26.835938 C 28.101562 27.230469 28.230469 27.347656 28.230469 27.703125 C 28.230469 28.191406 27.863281 28.414062 27.050781 28.414062 C 26.4375 28.414062 25.871094 28.316406 25.210938 28.105469 C 25.210938 28.105469 24.941406 29.835938 24.929688 29.917969 C 25.394531 30.023438 25.8125 30.117188 27.066406 30.152344 C 29.234375 30.152344 30.230469 29.320312 30.230469 27.523438 C 30.230469 26.445312 29.8125 25.808594 28.785156 25.332031 C 27.925781 24.933594 27.824219 24.847656 27.824219 24.480469 C 27.824219 24.054688 28.167969 23.835938 28.832031 23.835938 C 29.234375 23.835938 29.785156 23.882812 30.304688 23.957031 L 30.597656 22.132812 C 30.066406 22.046875 29.261719 21.980469 28.792969 21.980469 C 26.496094 21.980469 25.699219 23.1875 25.707031 24.640625 M 67.675781 30.015625 L 65.734375 30.015625 L 65.832031 29.285156 C 65.269531 29.890625 64.691406 30.152344 63.9375 30.152344 C 62.445312 30.152344 61.460938 28.855469 61.460938 26.890625 C 61.460938 24.273438 62.992188 22.070312 64.800781 22.070312 C 65.597656 22.070312 66.199219 22.398438 66.761719 23.144531 L 67.214844 20.351562 L 69.242188 20.351562 Z M 64.648438 28.199219 C 65.605469 28.199219 66.277344 27.105469 66.277344 25.550781 C 66.277344 24.550781 65.894531 24.007812 65.1875 24.007812 C 64.257812 24.007812 63.597656 25.105469 63.597656 26.648438 C 63.597656 27.679688 63.949219 28.199219 64.648438 28.199219 Z M 58.664062 22.15625 C 58.40625 24.589844 57.949219 27.050781 57.59375 29.488281 L 57.496094 30.015625 L 59.550781 30.015625 C 60.285156 25.207031 60.464844 24.269531 61.613281 24.386719 C 61.796875 23.402344 62.140625 22.542969 62.394531 22.109375 C 61.535156 21.925781 61.054688 22.417969 60.425781 23.347656 C 60.476562 22.945312 60.566406 22.554688 60.546875 22.15625 L 58.664062 22.15625 M 41.765625 22.15625 C 41.507812 24.589844 41.050781 27.050781 40.695312 29.488281 L 40.601562 30.015625 L 42.652344 30.015625 C 43.386719 25.207031 43.566406 24.269531 44.714844 24.386719 C 44.898438 23.402344 45.242188 22.542969 45.496094 22.109375 C 44.636719 21.925781 44.15625 22.417969 43.527344 23.347656 C 43.578125 22.945312 43.667969 22.554688 43.648438 22.15625 L 41.765625 22.15625 M 68.578125 29.398438 C 68.578125 29.238281 68.644531 29.078125 68.757812 28.964844 C 68.871094 28.847656 69.027344 28.785156 69.191406 28.785156 C 69.351562 28.785156 69.507812 28.847656 69.621094 28.964844 C 69.734375 29.078125 69.800781 29.238281 69.800781 29.398438 C 69.800781 29.738281 69.527344 30.015625 69.191406 30.015625 C 68.851562 30.015625 68.578125 29.738281 68.578125 29.398438 Z M 69.191406 29.867188 C 69.445312 29.867188 69.652344 29.65625 69.652344 29.398438 C 69.652344 29.140625 69.445312 28.933594 69.191406 28.933594 C 68.933594 28.933594 68.726562 29.140625 68.726562 29.398438 C 68.726562 29.65625 68.933594 29.867188 69.191406 29.867188 Z M 69.105469 29.667969 L 68.980469 29.667969 L 68.980469 29.128906 L 69.207031 29.128906 C 69.253906 29.128906 69.304688 29.128906 69.34375 29.15625 C 69.390625 29.1875 69.414062 29.238281 69.414062 29.292969 C 69.414062 29.351562 69.378906 29.410156 69.320312 29.429688 L 69.417969 29.667969 L 69.28125 29.667969 L 69.199219 29.457031 L 69.105469 29.457031 Z M 69.105469 29.363281 L 69.175781 29.363281 C 69.203125 29.363281 69.230469 29.363281 69.253906 29.351562 C 69.273438 29.339844 69.285156 29.3125 69.285156 29.289062 C 69.28125 29.269531 69.273438 29.246094 69.253906 29.234375 C 69.230469 29.222656 69.195312 29.226562 69.171875 29.226562 L 69.105469 29.226562 Z M 69.105469 29.363281 "/>
</g>
</svg>
